{"title":"The Wolf of Wall Street (2013) PROPER DVDScr x264 - HaM","uid":9452787,"size":1324351584,"categoryP":"video","categoryS":"movies","magnet":"?xt=urn:btih:5c25565c23cbcee733820231998bce4d36394535&amp;dn=The+Wolf+of+Wall+Street+%282013%29+PROPER+DVDScr+x264+-+HaM&amp;tr=udp%3A%2F%2Ftracker.openbittorrent.com%3A80&amp;tr=udp%3A%2F%2Fopen.demonii.com%3A1337&amp;tr=udp%3A%2F%2Ftracker.coppersurfer.tk%3A6969&amp;tr=udp%3A%2F%2Fexodus.desync.com%3A6969","seeders":27,"leechers":2,"uploader":"tykoon123","files":-1,"time":1389206898,"description":" &lt;a href=&quot;http://www.imageurlhost.com/images/pyh6n4ihwfq1g0944iwq.jpg&quot; rel=&quot;nofollow&quot; target=&quot;_NEW&quot;&gt;http://www.imageurlhost.com/images/pyh6n4ihwfq1g0944iwq.jpg&lt;/a&gt;\n\nInfo:\nFormat : MPEG-4\nFormat profile : Base Media / Version 2\nCodec ID : mp42\nFile size : 1.23 GiB\nDuration : 2h 59mn\nOverall bit rate mode : Variable\nOverall bit rate : 981 Kbps\nEncoded date : UTC 2014-01-02 07:42:11\nTagged date : UTC 2014-01-02 08:05:49\nWriting application : HandBrake 0.9.9 2013051800\n\nVideo\nID : 1\nFormat : AVC\nFormat/Info : Advanced Video Codec\nFormat profile : &lt;a class=&quot;__cf_email__&quot; href=&quot;/cdn-cgi/l/email-protection&quot; data-cfemail=&quot;266b474f48666a120816&quot;&gt;[email&amp;#160;protected]&lt;/a&gt;&lt;script cf-hash='f9e31' type=&quot;text/javascript&quot;&gt;\n/* &lt;![CDATA[ */!function(){try{var t=&quot;currentScript&quot;in document?document.currentScript:function(){for(var t=document.getElementsByTagName(&quot;script&quot;),e=t.length;e--;)if(t[e].getAttribute(&quot;cf-hash&quot;))return t[e]}();if(t&amp;&amp;t.previousSibling){var e,r,n,i,c=t.previousSibling,a=c.getAttribute(&quot;data-cfemail&quot;);if(a){for(e=&quot;&quot;,r=parseInt(a.substr(0,2),16),n=2;a.length-n;n+=2)i=parseInt(a.substr(n,2),16)^r,e+=String.fromCharCode(i);e=document.createTextNode(e),c.parentNode.replaceChild(e,c)}}}catch(u){}}();/* ]]&gt; */&lt;/script&gt;\nFormat settings, CABAC : Yes\nFormat settings, ReFrames : 4 frames\nCodec ID : avc1\nCodec ID/Info : Advanced Video Coding\nDuration : 2h 59mn\nBit rate mode : Variable\nBit rate : 819 Kbps\nWidth : 720 pixels\nHeight : 354 pixels\nDisplay aspect ratio : 2.40:1\nOriginal display aspect ratio : 2.40:1\nFrame rate mode : Variable\nFrame rate : 23.976 fps\nMinimum frame rate : 19.969 fps\nMaximum frame rate : 29.970 fps\nColor space : YUV\nChroma subsampling : 4:2:0\nBit depth : 8 bits\nScan type : Progressive\nBits/(Pixel*Frame) : 0.134\nStream size : 1.03 GiB (83%)\nWriting library : x264 core 130 r2273 b3065e6\nEncoded date : UTC 2014-01-02 07:42:11\nTagged date : UTC 2014-01-02 08:05:49\nColor primaries : BT.601 NTSC\nTransfer characteristics : BT.709\nMatrix coefficients : BT.601\n\nAudio\nID : 2\nFormat : AAC\nFormat/Info : Advanced Audio Codec\nFormat profile : LC\nCodec ID : 40\nDuration : 2h 59mn\nBit rate mode : Variable\nBit rate : 157 Kbps\nMaximum bit rate : 266 Kbps\nChannel(s) : 2 channels\nChannel positions : Front: L R\nSampling rate : 48.0 KHz\nCompression mode : Lossy\nDelay relative to video : 83ms\nStream size : 202 MiB (16%)\nLanguage : English\nEncoded date : UTC 2014-01-02 07:42:11\nTagged date : UTC 2014-01-02 08:05:48\n\nScreens: &lt;a href=&quot;\nhttp://www.imageurlhost.com/images/ds1uz07klbca05n3ff49.png&quot; rel=&quot;nofollow&quot; target=&quot;_NEW&quot;&gt;\nhttp://www.imageurlhost.com/images/ds1uz07klbca05n3ff49.png&lt;/a&gt; &lt;a href=&quot;\nhttp://www.imageurlhost.com/images/1wbs689aame4jvfsmq8.png&quot; rel=&quot;nofollow&quot; target=&quot;_NEW&quot;&gt;\nhttp://www.imageurlhost.com/images/1wbs689aame4jvfsmq8.png&lt;/a&gt; &lt;a href=&quot;\nhttp://www.imageurlhost.com/images/35mam09otacnv5z67bnt.png&quot; rel=&quot;nofollow&quot; target=&quot;_NEW&quot;&gt;\nhttp://www.imageurlhost.com/images/35mam09otacnv5z67bnt.png&lt;/a&gt;\n\n","torrent":{"xt":"urn:btih:5c25565c23cbcee733820231998bce4d36394535","amp;dn":"The+Wolf+of+Wall+Street+%282013%29+PROPER+DVDScr+x264+-+HaM","amp;tr":["udp%3A%2F%2Ftracker.openbittorrent.com%3A80","udp%3A%2F%2Fopen.demonii.com%3A1337","udp%3A%2F%2Ftracker.coppersurfer.tk%3A6969","udp%3A%2F%2Fexodus.desync.com%3A6969"],"infoHash":"5c25565c23cbcee733820231998bce4d36394535","infoHashBuffer":{"type":"Buffer","data":[92,37,86,92,35,203,206,231,51,130,2,49,153,139,206,77,54,57,69,53]},"announce":[],"urlList":[]}}